<svg width="1440" height="447" viewBox="0 0 1440 447" fill="none" xmlns="http://www.w3.org/2000/svg">
<rect y="-13" width="1440" height="460" fill="#F4F1FF"/>
<mask id="mask0_5_5575" style="mask-type:alpha" maskUnits="userSpaceOnUse" x="0" y="-13" width="1440" height="460">
<rect y="-13" width="1440" height="460" fill="#FFF9F7"/>
</mask>
<g mask="url(#mask0_5_5575)">
<g clip-path="url(#clip0_5_5575)">
<path d="M1417.22 214.661C1420.91 214.661 1423.91 211.668 1423.91 207.975C1423.91 204.282 1420.91 201.288 1417.22 201.288C1413.53 201.288 1410.53 204.282 1410.53 207.975C1410.53 211.668 1413.53 214.661 1417.22 214.661Z" fill="#693DE7" fill-opacity="0.5"/>
<path d="M1439.51 192.373C1443.2 192.373 1446.19 189.379 1446.19 185.686C1446.19 181.994 1443.2 179 1439.51 179C1435.81 179 1432.82 181.994 1432.82 185.686C1432.82 189.379 1435.81 192.373 1439.51 192.373Z" fill="#693DE7" fill-opacity="0.5"/>
<path d="M1372.64 259.238C1376.34 259.238 1379.33 256.244 1379.33 252.551C1379.33 248.858 1376.34 245.865 1372.64 245.865C1368.95 245.865 1365.96 248.858 1365.96 252.551C1365.96 256.244 1368.95 259.238 1372.64 259.238Z" fill="#693DE7" fill-opacity="0.5"/>
<path d="M1394.93 236.949C1398.62 236.949 1401.62 233.956 1401.62 230.263C1401.62 226.57 1398.62 223.576 1394.93 223.576C1391.24 223.576 1388.24 226.57 1388.24 230.263C1388.24 233.956 1391.24 236.949 1394.93 236.949Z" fill="#693DE7" fill-opacity="0.5"/>
<path d="M1417.22 259.238C1420.91 259.238 1423.91 256.244 1423.91 252.551C1423.91 248.858 1420.91 245.865 1417.22 245.865C1413.53 245.865 1410.53 248.858 1410.53 252.551C1410.53 256.244 1413.53 259.238 1417.22 259.238Z" fill="#693DE7" fill-opacity="0.5"/>
<path d="M1439.51 236.949C1443.2 236.949 1446.19 233.956 1446.19 230.263C1446.19 226.57 1443.2 223.576 1439.51 223.576C1435.81 223.576 1432.82 226.57 1432.82 230.263C1432.82 233.956 1435.81 236.949 1439.51 236.949Z" fill="#693DE7" fill-opacity="0.5"/>
<path d="M1328.07 303.814C1331.76 303.814 1334.75 300.82 1334.75 297.128C1334.75 293.435 1331.76 290.441 1328.07 290.441C1324.37 290.441 1321.38 293.435 1321.38 297.128C1321.38 300.82 1324.37 303.814 1328.07 303.814Z" fill="#693DE7" fill-opacity="0.5"/>
<path d="M1350.35 281.526C1354.05 281.526 1357.04 278.532 1357.04 274.839C1357.04 271.147 1354.05 268.153 1350.35 268.153C1346.66 268.153 1343.67 271.147 1343.67 274.839C1343.67 278.532 1346.66 281.526 1350.35 281.526Z" fill="#693DE7" fill-opacity="0.5"/>
<path d="M1372.64 303.814C1376.34 303.814 1379.33 300.82 1379.33 297.128C1379.33 293.435 1376.34 290.441 1372.64 290.441C1368.95 290.441 1365.96 293.435 1365.96 297.128C1365.96 300.82 1368.95 303.814 1372.64 303.814Z" fill="#693DE7" fill-opacity="0.5"/>
<path d="M1394.93 281.526C1398.62 281.526 1401.62 278.532 1401.62 274.839C1401.62 271.147 1398.62 268.153 1394.93 268.153C1391.24 268.153 1388.24 271.147 1388.24 274.839C1388.24 278.532 1391.24 281.526 1394.93 281.526Z" fill="#693DE7" fill-opacity="0.5"/>
<path d="M1417.22 303.814C1420.91 303.814 1423.91 300.82 1423.91 297.128C1423.91 293.435 1420.91 290.441 1417.22 290.441C1413.53 290.441 1410.53 293.435 1410.53 297.128C1410.53 300.82 1413.53 303.814 1417.22 303.814Z" fill="#693DE7" fill-opacity="0.5"/>
<path d="M1439.51 281.526C1443.2 281.526 1446.19 278.532 1446.19 274.839C1446.19 271.147 1443.2 268.153 1439.51 268.153C1435.81 268.153 1432.82 271.147 1432.82 274.839C1432.82 278.532 1435.81 281.526 1439.51 281.526Z" fill="#693DE7" fill-opacity="0.5"/>
<path d="M1350.35 326.102C1354.05 326.102 1357.04 323.109 1357.04 319.416C1357.04 315.723 1354.05 312.729 1350.35 312.729C1346.66 312.729 1343.67 315.723 1343.67 319.416C1343.67 323.109 1346.66 326.102 1350.35 326.102Z" fill="#693DE7" fill-opacity="0.5"/>
<path d="M1372.64 348.391C1376.34 348.391 1379.33 345.397 1379.33 341.704C1379.33 338.011 1376.34 335.018 1372.64 335.018C1368.95 335.018 1365.96 338.011 1365.96 341.704C1365.96 345.397 1368.95 348.391 1372.64 348.391Z" fill="#693DE7" fill-opacity="0.5"/>
<path d="M1394.93 326.102C1398.62 326.102 1401.62 323.109 1401.62 319.416C1401.62 315.723 1398.62 312.729 1394.93 312.729C1391.24 312.729 1388.24 315.723 1388.24 319.416C1388.24 323.109 1391.24 326.102 1394.93 326.102Z" fill="#693DE7" fill-opacity="0.5"/>
<path d="M1417.22 348.391C1420.91 348.391 1423.91 345.397 1423.91 341.704C1423.91 338.011 1420.91 335.018 1417.22 335.018C1413.53 335.018 1410.53 338.011 1410.53 341.704C1410.53 345.397 1413.53 348.391 1417.22 348.391Z" fill="#693DE7" fill-opacity="0.5"/>
<path d="M1439.51 326.102C1443.2 326.102 1446.19 323.109 1446.19 319.416C1446.19 315.723 1443.2 312.729 1439.51 312.729C1435.81 312.729 1432.82 315.723 1432.82 319.416C1432.82 323.109 1435.81 326.102 1439.51 326.102Z" fill="#693DE7" fill-opacity="0.5"/>
<path d="M1394.93 370.679C1398.62 370.679 1401.62 367.685 1401.62 363.992C1401.62 360.3 1398.62 357.306 1394.93 357.306C1391.24 357.306 1388.24 360.3 1388.24 363.992C1388.24 367.685 1391.24 370.679 1394.93 370.679Z" fill="#693DE7" fill-opacity="0.5"/>
<path d="M1417.22 392.967C1420.91 392.967 1423.91 389.973 1423.91 386.281C1423.91 382.588 1420.91 379.594 1417.22 379.594C1413.53 379.594 1410.53 382.588 1410.53 386.281C1410.53 389.973 1413.53 392.967 1417.22 392.967Z" fill="#693DE7" fill-opacity="0.5"/>
<path d="M1439.51 370.679C1443.2 370.679 1446.19 367.685 1446.19 363.992C1446.19 360.3 1443.2 357.306 1439.51 357.306C1435.81 357.306 1432.82 360.3 1432.82 363.992C1432.82 367.685 1435.81 370.679 1439.51 370.679Z" fill="#693DE7" fill-opacity="0.5"/>
<path d="M1439.51 415.255C1443.2 415.255 1446.19 412.262 1446.19 408.569C1446.19 404.876 1443.2 401.882 1439.51 401.882C1435.81 401.882 1432.82 404.876 1432.82 408.569C1432.82 412.262 1435.81 415.255 1439.51 415.255Z" fill="#693DE7" fill-opacity="0.5"/>
</g>
<rect width="637.119" height="583.663" rx="50" transform="matrix(0.706125 0.708087 -0.706125 0.708087 -215.119 -135)" fill="#E6DEFF"/>
<rect opacity="0.1" width="125.138" height="583.663" rx="50" transform="matrix(0.706125 0.708087 -0.706125 0.708087 1451.32 -163.929)" fill="#7951F9"/>
<rect opacity="0.14" width="137.507" height="583.663" rx="50" transform="matrix(0.706125 0.708087 -0.706125 0.708087 1673.64 -160)" fill="#7951F9"/>
<g clip-path="url(#clip1_5_5575)">
<path d="M46.7141 109.661C43.0213 109.661 40.0276 106.668 40.0276 102.975C40.0276 99.2818 43.0213 96.2882 46.7141 96.2882C50.4069 96.2882 53.4006 99.2818 53.4006 102.975C53.4006 106.668 50.4069 109.661 46.7141 109.661Z" fill="#693DE7" fill-opacity="0.5"/>
<path d="M24.4259 87.3729C20.7331 87.3729 17.7394 84.3793 17.7394 80.6865C17.7394 76.9936 20.7331 74 24.4259 74C28.1187 74 31.1124 76.9936 31.1124 80.6865C31.1124 84.3793 28.1187 87.3729 24.4259 87.3729Z" fill="#693DE7" fill-opacity="0.5"/>
<path d="M2.13763 109.661C-1.55521 109.661 -4.54884 106.668 -4.54884 102.975C-4.54884 99.2818 -1.55521 96.2882 2.13763 96.2882C5.83046 96.2882 8.8241 99.2818 8.8241 102.975C8.8241 106.668 5.83046 109.661 2.13763 109.661Z" fill="#693DE7" fill-opacity="0.5"/>
<path d="M91.2906 154.238C87.5977 154.238 84.6041 151.244 84.6041 147.551C84.6041 143.858 87.5977 140.865 91.2906 140.865C94.9834 140.865 97.9771 143.858 97.9771 147.551C97.9771 151.244 94.9834 154.238 91.2906 154.238Z" fill="#693DE7" fill-opacity="0.5"/>
<path d="M69.0024 131.949C65.3095 131.949 62.3159 128.956 62.3159 125.263C62.3159 121.57 65.3095 118.576 69.0024 118.576C72.6952 118.576 75.6888 121.57 75.6888 125.263C75.6888 128.956 72.6952 131.949 69.0024 131.949Z" fill="#693DE7" fill-opacity="0.5"/>
<path d="M46.7141 154.238C43.0213 154.238 40.0276 151.244 40.0276 147.551C40.0276 143.858 43.0213 140.865 46.7141 140.865C50.4069 140.865 53.4006 143.858 53.4006 147.551C53.4006 151.244 50.4069 154.238 46.7141 154.238Z" fill="#693DE7" fill-opacity="0.5"/>
<path d="M24.4259 131.949C20.7331 131.949 17.7394 128.956 17.7394 125.263C17.7394 121.57 20.7331 118.576 24.4259 118.576C28.1187 118.576 31.1124 121.57 31.1124 125.263C31.1124 128.956 28.1187 131.949 24.4259 131.949Z" fill="#693DE7" fill-opacity="0.5"/>
<path d="M2.13763 154.238C-1.55521 154.238 -4.54884 151.244 -4.54884 147.551C-4.54884 143.858 -1.55521 140.865 2.13763 140.865C5.83046 140.865 8.8241 143.858 8.8241 147.551C8.8241 151.244 5.83046 154.238 2.13763 154.238Z" fill="#693DE7" fill-opacity="0.5"/>
<path d="M135.867 198.814C132.174 198.814 129.181 195.82 129.181 192.128C129.181 188.435 132.174 185.441 135.867 185.441C139.56 185.441 142.554 188.435 142.554 192.128C142.554 195.82 139.56 198.814 135.867 198.814Z" fill="#693DE7" fill-opacity="0.5"/>
<path d="M113.579 176.526C109.886 176.526 106.892 173.532 106.892 169.839C106.892 166.147 109.886 163.153 113.579 163.153C117.272 163.153 120.265 166.147 120.265 169.839C120.265 173.532 117.272 176.526 113.579 176.526Z" fill="#693DE7" fill-opacity="0.5"/>
<path d="M91.2906 198.814C87.5977 198.814 84.6041 195.82 84.6041 192.128C84.6041 188.435 87.5977 185.441 91.2906 185.441C94.9834 185.441 97.9771 188.435 97.9771 192.128C97.9771 195.82 94.9834 198.814 91.2906 198.814Z" fill="#693DE7" fill-opacity="0.5"/>
<path d="M69.0024 176.526C65.3095 176.526 62.3159 173.532 62.3159 169.839C62.3159 166.147 65.3095 163.153 69.0024 163.153C72.6952 163.153 75.6888 166.147 75.6888 169.839C75.6888 173.532 72.6952 176.526 69.0024 176.526Z" fill="#693DE7" fill-opacity="0.5"/>
<path d="M46.7141 198.814C43.0213 198.814 40.0276 195.82 40.0276 192.128C40.0276 188.435 43.0213 185.441 46.7141 185.441C50.4069 185.441 53.4006 188.435 53.4006 192.128C53.4006 195.82 50.4069 198.814 46.7141 198.814Z" fill="#693DE7" fill-opacity="0.5"/>
<path d="M24.4259 176.526C20.7331 176.526 17.7394 173.532 17.7394 169.839C17.7394 166.147 20.7331 163.153 24.4259 163.153C28.1187 163.153 31.1124 166.147 31.1124 169.839C31.1124 173.532 28.1187 176.526 24.4259 176.526Z" fill="#693DE7" fill-opacity="0.5"/>
<path d="M2.13763 198.814C-1.55521 198.814 -4.54884 195.82 -4.54884 192.128C-4.54884 188.435 -1.55521 185.441 2.13763 185.441C5.83046 185.441 8.8241 188.435 8.8241 192.128C8.8241 195.82 5.83046 198.814 2.13763 198.814Z" fill="#693DE7" fill-opacity="0.5"/>
<path d="M113.579 221.102C109.886 221.102 106.892 218.109 106.892 214.416C106.892 210.723 109.886 207.729 113.579 207.729C117.272 207.729 120.265 210.723 120.265 214.416C120.265 218.109 117.272 221.102 113.579 221.102Z" fill="#693DE7" fill-opacity="0.5"/>
<path d="M91.2906 243.391C87.5977 243.391 84.6041 240.397 84.6041 236.704C84.6041 233.011 87.5977 230.018 91.2906 230.018C94.9834 230.018 97.9771 233.011 97.9771 236.704C97.9771 240.397 94.9834 243.391 91.2906 243.391Z" fill="#693DE7" fill-opacity="0.5"/>
<path d="M69.0024 221.102C65.3095 221.102 62.3159 218.109 62.3159 214.416C62.3159 210.723 65.3095 207.729 69.0024 207.729C72.6952 207.729 75.6888 210.723 75.6888 214.416C75.6888 218.109 72.6952 221.102 69.0024 221.102Z" fill="#693DE7" fill-opacity="0.5"/>
<path d="M46.7141 243.391C43.0213 243.391 40.0276 240.397 40.0276 236.704C40.0276 233.011 43.0213 230.018 46.7141 230.018C50.4069 230.018 53.4006 233.011 53.4006 236.704C53.4006 240.397 50.4069 243.391 46.7141 243.391Z" fill="#693DE7" fill-opacity="0.5"/>
<path d="M24.4259 221.102C20.7331 221.102 17.7394 218.109 17.7394 214.416C17.7394 210.723 20.7331 207.729 24.4259 207.729C28.1187 207.729 31.1124 210.723 31.1124 214.416C31.1124 218.109 28.1187 221.102 24.4259 221.102Z" fill="#693DE7" fill-opacity="0.5"/>
<path d="M2.13763 243.391C-1.55521 243.391 -4.54884 240.397 -4.54884 236.704C-4.54884 233.011 -1.55521 230.018 2.13763 230.018C5.83046 230.018 8.8241 233.011 8.8241 236.704C8.8241 240.397 5.83046 243.391 2.13763 243.391Z" fill="#693DE7" fill-opacity="0.5"/>
<path d="M69.0024 265.679C65.3095 265.679 62.3159 262.685 62.3159 258.992C62.3159 255.3 65.3095 252.306 69.0024 252.306C72.6952 252.306 75.6888 255.3 75.6888 258.992C75.6888 262.685 72.6952 265.679 69.0024 265.679Z" fill="#693DE7" fill-opacity="0.5"/>
<path d="M46.7141 287.967C43.0213 287.967 40.0276 284.973 40.0276 281.281C40.0276 277.588 43.0213 274.594 46.7141 274.594C50.4069 274.594 53.4006 277.588 53.4006 281.281C53.4006 284.973 50.4069 287.967 46.7141 287.967Z" fill="#693DE7" fill-opacity="0.5"/>
<path d="M24.4259 265.679C20.7331 265.679 17.7394 262.685 17.7394 258.992C17.7394 255.3 20.7331 252.306 24.4259 252.306C28.1187 252.306 31.1124 255.3 31.1124 258.992C31.1124 262.685 28.1187 265.679 24.4259 265.679Z" fill="#693DE7" fill-opacity="0.5"/>
<path d="M2.13763 287.967C-1.55521 287.967 -4.54884 284.973 -4.54884 281.281C-4.54884 277.588 -1.55521 274.594 2.13763 274.594C5.83046 274.594 8.8241 277.588 8.8241 281.281C8.8241 284.973 5.83046 287.967 2.13763 287.967Z" fill="#693DE7" fill-opacity="0.5"/>
<path d="M24.4259 310.255C20.7331 310.255 17.7394 307.262 17.7394 303.569C17.7394 299.876 20.7331 296.882 24.4259 296.882C28.1187 296.882 31.1124 299.876 31.1124 303.569C31.1124 307.262 28.1187 310.255 24.4259 310.255Z" fill="#693DE7" fill-opacity="0.5"/>
<path d="M2.13763 332.543C-1.55521 332.543 -4.54884 329.55 -4.54884 325.857C-4.54884 322.164 -1.55521 319.171 2.13763 319.171C5.83046 319.171 8.8241 322.164 8.8241 325.857C8.8241 329.55 5.83046 332.543 2.13763 332.543Z" fill="#693DE7" fill-opacity="0.5"/>
</g>
</g>
<defs>
<clipPath id="clip0_5_5575">
<rect width="208.421" height="285" fill="white" transform="translate(1254.52 179)"/>
</clipPath>
<clipPath id="clip1_5_5575">
<rect width="234.349" height="285" fill="white" transform="matrix(-1 0 0 1 209.418 74)"/>
</clipPath>
</defs>
</svg>
